{
    "asset" : {
        "generator" : "Khronos glTF Blender I/O v1.7.33",
        "version" : "2.0"
    },
    "scene" : 0,
    "scenes" : [
        {
            "name" : "Scene",
            "nodes" : [
                1,
                3,
                5
            ]
        }
    ],
    "nodes" : [
        {
            "mesh" : 0,
            "name" : "Clean_light_bulb_clean_bulb_light_mat_0"
        },
        {
            "children" : [
                0
            ],
            "name" : "Clean_light_bulb",
            "rotation" : [
                -0.7071067094802856,
                0,
                0,
                0.7071068286895752
            ],
            "translation" : [
                -96.8216781616211,
                57.65388488769531,
                0.15252096951007843
            ]
        },
        {
            "mesh" : 1,
            "name" : "Clean_retro_light_clean_retro_light_mat_0"
        },
        {
            "children" : [
                2
            ],
            "name" : "Clean_retro_light",
            "rotation" : [
                -0.7071068286895752,
                0,
                0,
                0.7071068286895752
            ],
            "translation" : [
                -96.85626220703125,
                40.92668151855469,
                -6.914145160408225e-06
            ]
        },
        {
            "mesh" : 2,
            "name" : "wire_filament_wire_filament_mat_0"
        },
        {
            "children" : [
                4
            ],
            "name" : "wire_filament",
            "rotation" : [
                -0.7071067094802856,
                0,
                0,
                0.7071068286895752
            ],
            "translation" : [
                -96.8216781616211,
                57.65388488769531,
                0.15252096951007843
            ]
        }
    ],
    "materials" : [
        {
            "alphaMode" : "BLEND",
            "doubleSided" : true,
            "name" : "clean_bulb_light_mat",
            "pbrMetallicRoughness" : {}
        },
        {
            "doubleSided" : true,
            "name" : "clean_retro_light_mat",
            "pbrMetallicRoughness" : {}
        },
        {
            "doubleSided" : true,
            "emissiveFactor" : [
                1,
                1,
                0.4909960627555847
            ],
            "name" : "wire_filament_mat",
            "pbrMetallicRoughness" : {}
        }
    ],
    "meshes" : [
        {
            "name" : "Clean_light_bulb_clean_bulb_light_mat_0",
            "primitives" : [
                {
                    "attributes" : {
                        "POSITION" : 0,
                        "NORMAL" : 1,
                        "TEXCOORD_0" : 2
                    },
                    "indices" : 3,
                    "material" : 0
                }
            ]
        },
        {
            "name" : "Clean_retro_light_clean_retro_light_mat_0",
            "primitives" : [
                {
                    "attributes" : {
                        "POSITION" : 4,
                        "NORMAL" : 5,
                        "TEXCOORD_0" : 6
                    },
                    "indices" : 7,
                    "material" : 1
                }
            ]
        },
        {
            "name" : "wire_filament_wire_filament_mat_0",
            "primitives" : [
                {
                    "attributes" : {
                        "POSITION" : 8,
                        "NORMAL" : 9,
                        "TEXCOORD_0" : 10
                    },
                    "indices" : 11,
                    "material" : 2
                }
            ]
        }
    ],
    "accessors" : [
        {
            "bufferView" : 0,
            "componentType" : 5126,
            "count" : 15813,
            "max" : [
                12.198750495910645,
                12.385139465332031,
                28.308307647705078
            ],
            "min" : [
                -12.267923355102539,
                -12.080085754394531,
                -11.466625213623047
            ],
            "type" : "VEC3"
        },
        {
            "bufferView" : 1,
            "componentType" : 5126,
            "count" : 15813,
            "type" : "VEC3"
        },
        {
            "bufferView" : 2,
            "componentType" : 5126,
            "count" : 15813,
            "type" : "VEC2"
        },
        {
            "bufferView" : 3,
            "componentType" : 5123,
            "count" : 61920,
            "type" : "SCALAR"
        },
        {
            "bufferView" : 4,
            "componentType" : 5126,
            "count" : 26985,
            "max" : [
                34.34942626953125,
                34.727943420410156,
                294.0830383300781
            ],
            "min" : [
                -34.34942626953125,
                -34.727943420410156,
                -1.1662826538085938
            ],
            "type" : "VEC3"
        },
        {
            "bufferView" : 5,
            "componentType" : 5126,
            "count" : 26985,
            "type" : "VEC3"
        },
        {
            "bufferView" : 6,
            "componentType" : 5126,
            "count" : 26985,
            "type" : "VEC2"
        },
        {
            "bufferView" : 7,
            "componentType" : 5123,
            "count" : 124020,
            "type" : "SCALAR"
        },
        {
            "bufferView" : 8,
            "componentType" : 5126,
            "count" : 1428,
            "max" : [
                2.3385565280914307,
                1.5170842409133911,
                3.9566588401794434
            ],
            "min" : [
                -2.3409340381622314,
                -1.375434398651123,
                1.7870233058929443
            ],
            "type" : "VEC3"
        },
        {
            "bufferView" : 9,
            "componentType" : 5126,
            "count" : 1428,
            "type" : "VEC3"
        },
        {
            "bufferView" : 10,
            "componentType" : 5126,
            "count" : 1428,
            "type" : "VEC2"
        },
        {
            "bufferView" : 11,
            "componentType" : 5123,
            "count" : 8280,
            "type" : "SCALAR"
        }
    ],
    "bufferViews" : [
        {
            "buffer" : 0,
            "byteLength" : 189756,
            "byteOffset" : 0
        },
        {
            "buffer" : 0,
            "byteLength" : 189756,
            "byteOffset" : 189756
        },
        {
            "buffer" : 0,
            "byteLength" : 126504,
            "byteOffset" : 379512
        },
        {
            "buffer" : 0,
            "byteLength" : 123840,
            "byteOffset" : 506016
        },
        {
            "buffer" : 0,
            "byteLength" : 323820,
            "byteOffset" : 629856
        },
        {
            "buffer" : 0,
            "byteLength" : 323820,
            "byteOffset" : 953676
        },
        {
            "buffer" : 0,
            "byteLength" : 215880,
            "byteOffset" : 1277496
        },
        {
            "buffer" : 0,
            "byteLength" : 248040,
            "byteOffset" : 1493376
        },
        {
            "buffer" : 0,
            "byteLength" : 17136,
            "byteOffset" : 1741416
        },
        {
            "buffer" : 0,
            "byteLength" : 17136,
            "byteOffset" : 1758552
        },
        {
            "buffer" : 0,
            "byteLength" : 11424,
            "byteOffset" : 1775688
        },
        {
            "buffer" : 0,
            "byteLength" : 16560,
            "byteOffset" : 1787112
        }
    ],
    "buffers" : [
        {
            "byteLength" : 1803672,
            "uri" : "data:application/octet-stream;base64,"
        }
    ]
}
