{
    "asset" : {
        "generator" : "Khronos glTF Blender I/O v1.7.33",
        "version" : "2.0"
    },
    "extensionsUsed" : [
        "KHR_lights_punctual",
        "KHR_materials_clearcoat",
        "KHR_materials_transmission"
    ],
    "extensionsRequired" : [
        "KHR_lights_punctual"
    ],
    "extensions" : {
        "KHR_lights_punctual" : {
            "lights" : [
                {
                    "color" : [
                        0.018332144245505333,
                        0.7491788864135742,
                        0.8970975279808044
                    ],
                    "intensity" : 20,
                    "spot" : {
                        "innerConeAngle" : 0.3337942263919169,
                        "outerConeAngle" : 0.39269909262657166
                    },
                    "type" : "spot",
                    "name" : "Area.002"
                },
                {
                    "color" : [
                        0.01048984844237566,
                        0.3521799147129059,
                        0.42002636194229126
                    ],
                    "intensity" : 20,
                    "spot" : {
                        "innerConeAngle" : 0.3337942263919169,
                        "outerConeAngle" : 0.39269909262657166
                    },
                    "type" : "spot",
                    "name" : "Area.003"
                }
            ]
        }
    },
    "scene" : 0,
    "scenes" : [
        {
            "name" : "Scene",
            "nodes" : [
                0,
                1,
                3,
                5,
                6,
                7,
                8
            ]
        }
    ],
    "nodes" : [
        {
            "name" : "Area",
            "translation" : [
                0,
                0.22857794165611267,
                0.007472038269042969
            ]
        },
        {
            "name" : "Area.001",
            "rotation" : [
                0,
                0,
                -1,
                -0.00044326388160698116
            ],
            "translation" : [
                0,
                -0.26962199807167053,
                0.007472038269042969
            ]
        },
        {
            "extensions" : {
                "KHR_lights_punctual" : {
                    "light" : 0
                }
            },
            "name" : "Area.002_Orientation",
            "rotation" : [
                -0.7071067690849304,
                0,
                0,
                0.7071067690849304
            ]
        },
        {
            "children" : [
                2
            ],
            "name" : "Area.002",
            "rotation" : [
                0,
                0,
                -0.7087928652763367,
                0.7054166793823242
            ],
            "translation" : [
                0.4162169396877289,
                -0.02235362119972706,
                0.007472038269042969
            ]
        },
        {
            "extensions" : {
                "KHR_lights_punctual" : {
                    "light" : 1
                }
            },
            "name" : "Area.003_Orientation",
            "rotation" : [
                -0.7071067690849304,
                0,
                0,
                0.7071067690849304
            ]
        },
        {
            "children" : [
                4
            ],
            "name" : "Area.003",
            "rotation" : [
                0,
                0,
                -0.7087260484695435,
                -0.7054837942123413
            ],
            "translation" : [
                -0.42039304971694946,
                -0.02235362119972706,
                0.007472038269042969
            ]
        },
        {
            "mesh" : 0,
            "name" : "Sphere.002",
            "scale" : [
                0.15000000596046448,
                0.15000000596046448,
                0.15000000596046448
            ]
        },
        {
            "mesh" : 1,
            "name" : "Sphere3"
        },
        {
            "mesh" : 2,
            "name" : "Text",
            "rotation" : [
                0.7071068286895752,
                0,
                0,
                0.7071068286895752
            ],
            "scale" : [
                0.6117588877677917,
                6.079999923706055,
                0.6200000047683716
            ],
            "translation" : [
                0,
                0.012752729468047619,
                0.18469896912574768
            ]
        }
    ],
    "materials" : [
        {
            "doubleSided" : true,
            "emissiveFactor" : [
                0,
                1,
                1
            ],
            "extensions" : {
                "KHR_materials_clearcoat" : {
                    "clearcoatFactor" : 0.8557692170143127,
                    "clearcoatRoughnessFactor" : 0.44545453786849976
                },
                "KHR_materials_transmission" : {
                    "transmissionFactor" : 0.8001748323440552
                }
            },
            "name" : "Material",
            "pbrMetallicRoughness" : {
                "baseColorFactor" : [
                    0.09072043001651764,
                    0.28999796509742737,
                    0.8000000715255737,
                    0.6693251132965088
                ],
                "metallicFactor" : 0.6090909242630005,
                "roughnessFactor" : 0.6456692814826965
            }
        },
        {
            "alphaMode" : "BLEND",
            "name" : "WS_logo_GLTF",
            "pbrMetallicRoughness" : {}
        }
    ],
    "meshes" : [
        {
            "name" : "Sphere.002",
            "primitives" : [
                {
                    "attributes" : {
                        "POSITION" : 0,
                        "NORMAL" : 1,
                        "TANGENT" : 2,
                        "TEXCOORD_0" : 3
                    },
                    "indices" : 4,
                    "material" : 0
                }
            ]
        },
        {
            "name" : "WS_Logo_2",
            "primitives" : [
                {
                    "attributes" : {
                        "POSITION" : 5,
                        "NORMAL" : 6,
                        "TEXCOORD_0" : 7,
                        "TEXCOORD_1" : 8
                    },
                    "indices" : 9,
                    "material" : 1
                }
            ]
        },
        {
            "name" : "Text",
            "primitives" : [
                {
                    "attributes" : {
                        "POSITION" : 10,
                        "NORMAL" : 11,
                        "TANGENT" : 12,
                        "TEXCOORD_0" : 13
                    },
                    "indices" : 14,
                    "material" : 0
                }
            ]
        }
    ],
    "accessors" : [
        {
            "bufferView" : 0,
            "componentType" : 5126,
            "count" : 1984,
            "max" : [
                0.9999997019767761,
                1,
                0.9999994039535522
            ],
            "min" : [
                -0.9999990463256836,
                -1,
                -0.9999987483024597
            ],
            "type" : "VEC3"
        },
        {
            "bufferView" : 1,
            "componentType" : 5126,
            "count" : 1984,
            "type" : "VEC3"
        },
        {
            "bufferView" : 2,
            "componentType" : 5126,
            "count" : 1984,
            "type" : "VEC4"
        },
        {
            "bufferView" : 3,
            "componentType" : 5126,
            "count" : 1984,
            "type" : "VEC2"
        },
        {
            "bufferView" : 4,
            "componentType" : 5123,
            "count" : 2880,
            "type" : "SCALAR"
        },
        {
            "bufferView" : 5,
            "componentType" : 5126,
            "count" : 3157,
            "max" : [
                0.5,
                0.5,
                0.5
            ],
            "min" : [
                -0.5,
                -0.5,
                -0.4999999403953552
            ],
            "type" : "VEC3"
        },
        {
            "bufferView" : 6,
            "componentType" : 5126,
            "count" : 3157,
            "type" : "VEC3"
        },
        {
            "bufferView" : 7,
            "componentType" : 5126,
            "count" : 3157,
            "type" : "VEC2"
        },
        {
            "bufferView" : 8,
            "componentType" : 5126,
            "count" : 3157,
            "type" : "VEC2"
        },
        {
            "bufferView" : 9,
            "componentType" : 5123,
            "count" : 7008,
            "type" : "SCALAR"
        },
        {
            "bufferView" : 10,
            "componentType" : 5126,
            "count" : 2512,
            "max" : [
                0.6145212650299072,
                0.05402063578367233,
                0.06359998136758804
            ],
            "min" : [
                -0.6232078075408936,
                0.03247673064470291,
                -0.04692002758383751
            ],
            "type" : "VEC3"
        },
        {
            "bufferView" : 11,
            "componentType" : 5126,
            "count" : 2512,
            "type" : "VEC3"
        },
        {
            "bufferView" : 12,
            "componentType" : 5126,
            "count" : 2512,
            "type" : "VEC4"
        },
        {
            "bufferView" : 13,
            "componentType" : 5126,
            "count" : 2512,
            "type" : "VEC2"
        },
        {
            "bufferView" : 14,
            "componentType" : 5123,
            "count" : 2514,
            "type" : "SCALAR"
        }
    ],
    "bufferViews" : [
        {
            "buffer" : 0,
            "byteLength" : 23808,
            "byteOffset" : 0
        },
        {
            "buffer" : 0,
            "byteLength" : 23808,
            "byteOffset" : 23808
        },
        {
            "buffer" : 0,
            "byteLength" : 31744,
            "byteOffset" : 47616
        },
        {
            "buffer" : 0,
            "byteLength" : 15872,
            "byteOffset" : 79360
        },
        {
            "buffer" : 0,
            "byteLength" : 5760,
            "byteOffset" : 95232
        },
        {
            "buffer" : 0,
            "byteLength" : 37884,
            "byteOffset" : 100992
        },
        {
            "buffer" : 0,
            "byteLength" : 37884,
            "byteOffset" : 138876
        },
        {
            "buffer" : 0,
            "byteLength" : 25256,
            "byteOffset" : 176760
        },
        {
            "buffer" : 0,
            "byteLength" : 25256,
            "byteOffset" : 202016
        },
        {
            "buffer" : 0,
            "byteLength" : 14016,
            "byteOffset" : 227272
        },
        {
            "buffer" : 0,
            "byteLength" : 30144,
            "byteOffset" : 241288
        },
        {
            "buffer" : 0,
            "byteLength" : 30144,
            "byteOffset" : 271432
        },
        {
            "buffer" : 0,
            "byteLength" : 40192,
            "byteOffset" : 301576
        },
        {
            "buffer" : 0,
            "byteLength" : 20096,
            "byteOffset" : 341768
        },
        {
            "buffer" : 0,
            "byteLength" : 5028,
            "byteOffset" : 361864
        }
    ],
    "buffers" : [
        {
            "byteLength" : 366892,
            "uri" : "data:application/octet-stream;base64,"
        }
    ]
}
